<svg width="150" height="151" viewBox="0 0 150 151" fill="none" xmlns="http://www.w3.org/2000/svg">
<circle cx="75" cy="75" r="75" fill="url(#paint0_linear)"/>
<path d="M82.7188 53.3438V78.4688C82.7188 84.1875 79.1719 88.5156 72.0781 91.4531C68.1094 93.1094 63.7656 93.9375 59.0469 93.9375C54.3281 93.9375 49.9844 93.1094 46.0156 91.4531C38.9219 88.5156 35.375 84.1875 35.375 78.4688V36.75C35.375 31.0312 38.9219 26.7031 46.0156 23.7656C49.9844 22.1094 54.3281 21.2812 59.0469 21.2812C63.7656 21.2812 68.1094 22.1094 72.0781 23.7656C79.1719 26.7031 82.7188 31.0312 82.7188 36.75V43.7812L73.8125 48H73.3438V36.75C73.3438 34.5938 71.4531 32.7656 67.6719 31.2656C65.0469 30.2344 62.1719 29.7188 59.0469 29.7188C55.9219 29.7188 53.0469 30.2344 50.4219 31.2656C46.6406 32.7656 44.75 34.5938 44.75 36.75V78.4688C44.75 80.625 46.6406 82.4531 50.4219 83.9531C53.0469 84.9844 55.9219 85.5 59.0469 85.5C62.1719 85.5 65.0469 84.9844 67.6719 83.9531C71.4531 82.4531 73.3438 80.625 73.3438 78.4688V61.875H57.0312V61.4062L60.8281 53.3438H82.7188Z" fill="#37003C"/>
<path d="M82.7188 53.3438H84.7188V51.3438H82.7188V53.3438ZM72.0781 91.4531L71.3129 89.6053L71.3079 89.6074L72.0781 91.4531ZM46.0156 91.4531L46.7859 89.6074L46.7808 89.6053L46.0156 91.4531ZM46.0156 23.7656L46.7808 25.6135L46.7859 25.6113L46.0156 23.7656ZM72.0781 23.7656L71.3079 25.6114L71.3129 25.6135L72.0781 23.7656ZM82.7188 43.7812L83.5749 45.5887L84.7188 45.0469V43.7812H82.7188ZM73.8125 48V50H74.2622L74.6687 49.8075L73.8125 48ZM73.3438 48H71.3438V50H73.3438V48ZM67.6719 31.2656L68.4094 29.4065L68.4032 29.4041L67.6719 31.2656ZM50.4219 31.2656L49.6906 29.4041L49.6844 29.4066L50.4219 31.2656ZM50.4219 83.9531L49.6844 85.8122L49.6906 85.8146L50.4219 83.9531ZM67.6719 83.9531L68.4032 85.8146L68.4094 85.8122L67.6719 83.9531ZM73.3438 61.875H75.3438V59.875H73.3438V61.875ZM57.0312 61.875H55.0312V63.875H57.0312V61.875ZM57.0312 61.4062L55.2219 60.5541L55.0312 60.9589V61.4062H57.0312ZM60.8281 53.3438V51.3438H59.5593L59.0187 52.4916L60.8281 53.3438ZM80.7188 53.3438V78.4688H84.7188V53.3438H80.7188ZM80.7188 78.4688C80.7188 80.877 79.9852 82.9381 78.5117 84.7362C77.0102 86.5684 74.6632 88.218 71.3129 89.6053L72.8433 93.301C76.5868 91.7508 79.5601 89.7675 81.6055 87.2716C83.6789 84.7416 84.7188 81.7793 84.7188 78.4688H80.7188ZM71.3079 89.6074C67.6059 91.1523 63.527 91.9375 59.0469 91.9375V95.9375C64.0042 95.9375 68.6128 95.0664 72.8484 93.2988L71.3079 89.6074ZM59.0469 91.9375C54.5667 91.9375 50.4878 91.1523 46.7859 89.6074L45.2454 93.2988C49.4809 95.0664 54.0895 95.9375 59.0469 95.9375V91.9375ZM46.7808 89.6053C43.4306 88.218 41.0835 86.5684 39.5821 84.7362C38.1085 82.9381 37.375 80.877 37.375 78.4688H33.375C33.375 81.7793 34.4149 84.7416 36.4882 87.2716C38.5337 89.7675 41.5069 91.7508 45.2504 93.301L46.7808 89.6053ZM37.375 78.4688V36.75H33.375V78.4688H37.375ZM37.375 36.75C37.375 34.3418 38.1085 32.2806 39.5821 30.4825C41.0835 28.6504 43.4306 27.0008 46.7808 25.6135L45.2504 21.9178C41.5069 23.468 38.5337 25.4512 36.4882 27.9472C34.4149 30.4772 33.375 33.4395 33.375 36.75H37.375ZM46.7859 25.6113C50.4878 24.0664 54.5667 23.2812 59.0469 23.2812V19.2812C54.0895 19.2812 49.4809 20.1523 45.2454 21.9199L46.7859 25.6113ZM59.0469 23.2812C63.527 23.2812 67.6059 24.0664 71.3079 25.6113L72.8484 21.9199C68.6128 20.1523 64.0042 19.2812 59.0469 19.2812V23.2812ZM71.3129 25.6135C74.6632 27.0008 77.0102 28.6504 78.5117 30.4825C79.9852 32.2806 80.7188 34.3418 80.7188 36.75H84.7188C84.7188 33.4395 83.6789 30.4772 81.6055 27.9472C79.5601 25.4512 76.5868 23.468 72.8433 21.9178L71.3129 25.6135ZM80.7188 36.75V43.7812H84.7188V36.75H80.7188ZM81.8626 41.9738L72.9563 46.1925L74.6687 49.8075L83.5749 45.5887L81.8626 41.9738ZM73.8125 46H73.3438V50H73.8125V46ZM75.3438 48V36.75H71.3438V48H75.3438ZM75.3438 36.75C75.3438 33.2157 72.248 30.9293 68.4094 29.4066L66.9344 33.1247C70.6583 34.6019 71.3438 35.9718 71.3438 36.75H75.3438ZM68.4032 29.4041C65.5213 28.272 62.3951 27.7188 59.0469 27.7188V31.7188C61.9486 31.7188 64.5724 32.1968 66.9406 33.1271L68.4032 29.4041ZM59.0469 27.7188C55.6986 27.7188 52.5724 28.272 49.6906 29.4041L51.1532 33.1271C53.5213 32.1968 56.1451 31.7188 59.0469 31.7188V27.7188ZM49.6844 29.4066C45.8458 30.9293 42.75 33.2157 42.75 36.75H46.75C46.75 35.9718 47.4355 34.6019 51.1594 33.1247L49.6844 29.4066ZM42.75 36.75V78.4688H46.75V36.75H42.75ZM42.75 78.4688C42.75 82.0031 45.8458 84.2894 49.6844 85.8122L51.1594 82.0941C47.4355 80.6168 46.75 79.2469 46.75 78.4688H42.75ZM49.6906 85.8146C52.5724 86.9468 55.6986 87.5 59.0469 87.5V83.5C56.1451 83.5 53.5213 83.022 51.1532 82.0916L49.6906 85.8146ZM59.0469 87.5C62.3951 87.5 65.5213 86.9468 68.4032 85.8146L66.9406 82.0916C64.5724 83.022 61.9486 83.5 59.0469 83.5V87.5ZM68.4094 85.8122C72.248 84.2894 75.3438 82.0031 75.3438 78.4688H71.3438C71.3438 79.2469 70.6583 80.6168 66.9344 82.0941L68.4094 85.8122ZM75.3438 78.4688V61.875H71.3438V78.4688H75.3438ZM73.3438 59.875H57.0312V63.875H73.3438V59.875ZM59.0312 61.875V61.4062H55.0312V61.875H59.0312ZM58.8406 62.2584L62.6375 54.1959L59.0187 52.4916L55.2219 60.5541L58.8406 62.2584ZM60.8281 55.3438H82.7188V51.3438H60.8281V55.3438Z" fill="#37003C"/>
<path d="M69.5 104.438L78.4062 100.219H78.875V111.469C78.875 113.625 80.7656 115.453 84.5469 116.953C87.1719 117.984 90.0469 118.5 93.1719 118.5C96.2969 118.5 99.1719 117.984 101.797 116.953C105.578 115.453 107.469 113.625 107.469 111.469V97.8281C107.469 95.6406 105.578 93.8125 101.797 92.3438C99.1719 91.3125 96.2969 90.7969 93.1719 90.7969C89.2031 90.7969 85.6406 90.1875 82.4844 88.9688C76.6406 86.6562 73.7188 83.4375 73.7188 79.3125V65.7656C73.7188 61.5781 76.6406 58.3594 82.4844 56.1094C85.6406 54.8906 89.2031 54.2812 93.1719 54.2812C97.1406 54.2812 100.703 54.8906 103.859 56.1094C109.703 58.4219 112.625 61.6406 112.625 65.7656V71.7656L103.719 75.9844H103.25V67.4062C103.25 65.8438 102.266 64.6719 100.297 63.8906C98.3594 63.1094 95.9844 62.7188 93.1719 62.7188C90.3594 62.7188 87.9688 63.1094 86 63.8906C84.0625 64.6719 83.0938 65.8438 83.0938 67.4062V77.6719C83.0938 79.2344 84.0625 80.4062 86 81.1875C87.9688 81.9688 90.3594 82.3594 93.1719 82.3594C97.8906 82.3594 102.234 83.1875 106.203 84.8438C113.297 87.7812 116.844 92.1094 116.844 97.8281V111.469C116.844 117.156 113.297 121.484 106.203 124.453C102.234 126.109 97.8906 126.938 93.1719 126.938C88.4531 126.938 84.1094 126.109 80.1406 124.453C73.0469 121.516 69.5 117.188 69.5 111.469V104.438Z" fill="#37003C"/>
<path d="M69.5 104.438L68.6438 102.63L67.5 103.172V104.438H69.5ZM78.4062 100.219V98.2188H77.9565L77.5501 98.4113L78.4062 100.219ZM78.875 100.219H80.875V98.2188H78.875V100.219ZM84.5469 116.953L83.8094 118.812L83.8156 118.815L84.5469 116.953ZM101.797 116.953L102.528 118.815L102.534 118.812L101.797 116.953ZM101.797 92.3438L101.066 94.2053L101.073 94.208L101.797 92.3438ZM82.4844 88.9688L81.7485 90.8284L81.7562 90.8315L81.7639 90.8345L82.4844 88.9688ZM82.4844 56.1094L83.203 57.9758L83.2048 57.9751L82.4844 56.1094ZM103.859 56.1094L104.595 54.2497L104.588 54.2466L104.58 54.2436L103.859 56.1094ZM112.625 71.7656L113.481 73.5731L114.625 73.0313V71.7656H112.625ZM103.719 75.9844V77.9844H104.168L104.575 77.7919L103.719 75.9844ZM103.25 75.9844H101.25V77.9844H103.25V75.9844ZM100.297 63.8906L99.5489 65.7455L99.5592 65.7496L100.297 63.8906ZM86 63.8906L85.2623 62.0316L85.2521 62.0357L86 63.8906ZM86 81.1875L85.2521 83.0424L85.2623 83.0465L86 81.1875ZM106.203 84.8438L105.433 86.6895L105.438 86.6916L106.203 84.8438ZM106.203 124.453L106.973 126.299L106.975 126.298L106.203 124.453ZM80.1406 124.453L80.9109 122.607L80.9058 122.605L80.1406 124.453ZM70.3562 106.245L79.2624 102.026L77.5501 98.4113L68.6438 102.63L70.3562 106.245ZM78.4062 102.219H78.875V98.2188H78.4062V102.219ZM76.875 100.219V111.469H80.875V100.219H76.875ZM76.875 111.469C76.875 115.003 79.9708 117.289 83.8094 118.812L85.2844 115.094C81.5605 113.617 80.875 112.247 80.875 111.469H76.875ZM83.8156 118.815C86.6974 119.947 89.8236 120.5 93.1719 120.5V116.5C90.2701 116.5 87.6463 116.022 85.2782 115.092L83.8156 118.815ZM93.1719 120.5C96.5201 120.5 99.6463 119.947 102.528 118.815L101.066 115.092C98.6974 116.022 96.0736 116.5 93.1719 116.5V120.5ZM102.534 118.812C106.373 117.289 109.469 115.003 109.469 111.469H105.469C105.469 112.247 104.783 113.617 101.059 115.094L102.534 118.812ZM109.469 111.469V97.8281H105.469V111.469H109.469ZM109.469 97.8281C109.469 94.2631 106.377 91.9774 102.521 90.4795L101.073 94.208C104.779 95.6476 105.469 97.0182 105.469 97.8281H109.469ZM102.528 90.4822C99.6463 89.3501 96.5201 88.7969 93.1719 88.7969V92.7969C96.0736 92.7969 98.6974 93.2749 101.066 94.2053L102.528 90.4822ZM93.1719 88.7969C89.4076 88.7969 86.0952 88.2191 83.2048 87.103L81.7639 90.8345C85.1861 92.1559 88.9986 92.7969 93.1719 92.7969V88.7969ZM83.2203 87.1091C77.6776 84.9157 75.7188 82.2132 75.7188 79.3125H71.7188C71.7188 84.6618 75.6036 88.3968 81.7485 90.8284L83.2203 87.1091ZM75.7188 79.3125V65.7656H71.7188V79.3125H75.7188ZM75.7188 65.7656C75.7188 62.7991 77.6834 60.101 83.203 57.9758L81.7657 54.2429C75.5979 56.6177 71.7188 60.3572 71.7188 65.7656H75.7188ZM83.2048 57.9751C86.0952 56.859 89.4076 56.2812 93.1719 56.2812V52.2812C88.9986 52.2812 85.1861 52.9222 81.7639 54.2436L83.2048 57.9751ZM93.1719 56.2812C96.9361 56.2812 100.249 56.859 103.139 57.9751L104.58 54.2436C101.158 52.9222 97.3451 52.2812 93.1719 52.2812V56.2812ZM103.123 57.9691C108.666 60.1624 110.625 62.8649 110.625 65.7656H114.625C114.625 60.4163 110.74 56.6813 104.595 54.2497L103.123 57.9691ZM110.625 65.7656V71.7656H114.625V65.7656H110.625ZM111.769 69.9581L102.863 74.1769L104.575 77.7919L113.481 73.5731L111.769 69.9581ZM103.719 73.9844H103.25V77.9844H103.719V73.9844ZM105.25 75.9844V67.4062H101.25V75.9844H105.25ZM105.25 67.4062C105.25 66.1652 104.845 65.0235 104.043 64.0691C103.272 63.1509 102.215 62.4999 101.035 62.0316L99.5592 65.7496C100.348 66.0626 100.767 66.3882 100.98 66.6419C101.163 66.8593 101.25 67.0848 101.25 67.4062H105.25ZM101.045 62.0357C98.8028 61.1317 96.1572 60.7188 93.1719 60.7188V64.7188C95.8116 64.7188 97.9159 65.087 99.5489 65.7455L101.045 62.0357ZM93.1719 60.7188C90.185 60.7188 87.529 61.1322 85.2623 62.0316L86.7377 65.7496C88.4085 65.0866 90.5338 64.7188 93.1719 64.7188V60.7188ZM85.2521 62.0357C84.0845 62.5065 83.0397 63.1607 82.2788 64.0812C81.4893 65.0363 81.0938 66.1738 81.0938 67.4062H85.0938C85.0938 67.0762 85.1826 66.8465 85.3618 66.6298C85.5696 66.3784 85.978 66.056 86.7479 65.7455L85.2521 62.0357ZM81.0938 67.4062V77.6719H85.0938V67.4062H81.0938ZM81.0938 77.6719C81.0938 78.9043 81.4893 80.0418 82.2788 80.997C83.0397 81.9174 84.0845 82.5716 85.2521 83.0424L86.7479 79.3326C85.978 79.0222 85.5696 78.6998 85.3618 78.4484C85.1826 78.2316 85.0938 78.002 85.0938 77.6719H81.0938ZM85.2623 83.0465C87.529 83.946 90.185 84.3594 93.1719 84.3594V80.3594C90.5338 80.3594 88.4085 79.9915 86.7377 79.3285L85.2623 83.0465ZM93.1719 84.3594C97.652 84.3594 101.731 85.1446 105.433 86.6895L106.973 82.998C102.738 81.2304 98.1292 80.3594 93.1719 80.3594V84.3594ZM105.438 86.6916C108.788 88.0789 111.135 89.7285 112.637 91.5607C114.11 93.3588 114.844 95.4199 114.844 97.8281H118.844C118.844 94.5176 117.804 91.5553 115.731 89.0253C113.685 86.5293 110.712 84.5461 106.968 82.9959L105.438 86.6916ZM114.844 97.8281V111.469H118.844V97.8281H114.844ZM114.844 111.469C114.844 113.859 114.112 115.913 112.637 117.713C111.133 119.547 108.784 121.205 105.431 122.608L106.975 126.298C110.716 124.732 113.687 122.742 115.731 120.248C117.802 117.72 118.844 114.766 118.844 111.469H114.844ZM105.433 122.607C101.731 124.152 97.652 124.938 93.1719 124.938V128.938C98.1292 128.938 102.738 128.066 106.973 126.299L105.433 122.607ZM93.1719 124.938C88.6917 124.938 84.6128 124.152 80.9109 122.607L79.3704 126.299C83.6059 128.066 88.2145 128.938 93.1719 128.938V124.938ZM80.9058 122.605C77.5556 121.218 75.2085 119.568 73.7071 117.736C72.2335 115.938 71.5 113.877 71.5 111.469H67.5C67.5 114.779 68.5399 117.742 70.6132 120.272C72.6587 122.768 75.6319 124.751 79.3754 126.301L80.9058 122.605ZM71.5 111.469V104.438H67.5V111.469H71.5Z" fill="#37003C"/>
<defs>
<linearGradient id="paint0_linear" x1="75" y1="0" x2="75" y2="150" gradientUnits="userSpaceOnUse">
<stop stop-color="#FF005A"/>
<stop offset="1" stop-color="#FF005A"/>
</linearGradient>
</defs>
</svg>
