<svg width="150" height="151" viewBox="0 0 150 151" fill="none" xmlns="http://www.w3.org/2000/svg">
<circle cx="75" cy="75" r="75" fill="url(#paint0_linear)"/>
<path d="M82.7188 53.3438V78.4688C82.7188 84.1875 79.1719 88.5156 72.0781 91.4531C68.1094 93.1094 63.7656 93.9375 59.0469 93.9375C54.3281 93.9375 49.9844 93.1094 46.0156 91.4531C38.9219 88.5156 35.375 84.1875 35.375 78.4688V36.75C35.375 31.0312 38.9219 26.7031 46.0156 23.7656C49.9844 22.1094 54.3281 21.2812 59.0469 21.2812C63.7656 21.2812 68.1094 22.1094 72.0781 23.7656C79.1719 26.7031 82.7188 31.0312 82.7188 36.75V43.7812L73.8125 48H73.3438V36.75C73.3438 34.5938 71.4531 32.7656 67.6719 31.2656C65.0469 30.2344 62.1719 29.7188 59.0469 29.7188C55.9219 29.7188 53.0469 30.2344 50.4219 31.2656C46.6406 32.7656 44.75 34.5938 44.75 36.75V78.4688C44.75 80.625 46.6406 82.4531 50.4219 83.9531C53.0469 84.9844 55.9219 85.5 59.0469 85.5C62.1719 85.5 65.0469 84.9844 67.6719 83.9531C71.4531 82.4531 73.3438 80.625 73.3438 78.4688V61.875H57.0312V61.4062L60.8281 53.3438H82.7188Z" fill="#37003C"/>
<path d="M69.5 104.438L78.4062 100.219H78.875V111.469C78.875 113.625 80.7656 115.453 84.5469 116.953C87.1719 117.984 90.0469 118.5 93.1719 118.5C96.2969 118.5 99.1719 117.984 101.797 116.953C105.578 115.453 107.469 113.625 107.469 111.469V97.8281C107.469 95.6406 105.578 93.8125 101.797 92.3438C99.1719 91.3125 96.2969 90.7969 93.1719 90.7969C89.2031 90.7969 85.6406 90.1875 82.4844 88.9688C76.6406 86.6562 73.7188 83.4375 73.7188 79.3125V65.7656C73.7188 61.5781 76.6406 58.3594 82.4844 56.1094C85.6406 54.8906 89.2031 54.2812 93.1719 54.2812C97.1406 54.2812 100.703 54.8906 103.859 56.1094C109.703 58.4219 112.625 61.6406 112.625 65.7656V71.7656L103.719 75.9844H103.25V67.4062C103.25 65.8438 102.266 64.6719 100.297 63.8906C98.3594 63.1094 95.9844 62.7188 93.1719 62.7188C90.3594 62.7188 87.9688 63.1094 86 63.8906C84.0625 64.6719 83.0938 65.8438 83.0938 67.4062V77.6719C83.0938 79.2344 84.0625 80.4062 86 81.1875C87.9688 81.9688 90.3594 82.3594 93.1719 82.3594C97.8906 82.3594 102.234 83.1875 106.203 84.8438C113.297 87.7812 116.844 92.1094 116.844 97.8281V111.469C116.844 117.156 113.297 121.484 106.203 124.453C102.234 126.109 97.8906 126.938 93.1719 126.938C88.4531 126.938 84.1094 126.109 80.1406 124.453C73.0469 121.516 69.5 117.188 69.5 111.469V104.438Z" fill="#37003C"/>
<defs>
<linearGradient id="paint0_linear" x1="75" y1="0" x2="75" y2="150" gradientUnits="userSpaceOnUse">
<stop stop-color="#FF005A"/>
<stop offset="1" stop-color="#FF005A"/>
</linearGradient>
</defs>
</svg>
